<svg xmlns="http://www.w3.org/2000/svg" width="1592" height="652" viewBox="0 0 1592 652"><title>bg-api</title><g fill="#FFF" fill-opacity=".3" fill-rule="evenodd" opacity=".1"><path d="M106.408 0l53.035 93.1H53.373zM159.443 93.1l53.036 93.101H106.408zM106.408 186.201l53.035 93.1H53.373z"/><path d="M212.479 186.201l53.035 93.1H159.443z" opacity=".5"/><path d="M318.549 186.201l53.035 93.1h-106.07zM424.62 186.201l53.035 93.1H371.584zM636.761 186.201l53.035 93.1h-106.07z"/><path d="M742.832 186.201l53.035 93.1H689.796z" opacity=".65"/><path d="M848.902 186.201l53.035 93.1h-106.07z" opacity=".5"/><path d="M954.973 186.201l53.037 93.1H901.937z" opacity=".65"/><path d="M1061.04 186.201l53.04 93.1h-106.07z" opacity=".2"/><path d="M1167.11 186.201l53.04 93.1h-106.07z" opacity=".5"/><path d="M1273.18 186.201l53.04 93.1h-106.07z" opacity=".4"/><path d="M1379.26 186.201l53.03 93.1h-106.07z" opacity=".8"/><path d="M1485.33 186.201l53.03 93.1h-106.07zM53.373 93.1l53.035 93.101H.338z"/><path d="M53.373 279.301l53.035 93.101H.338z" opacity=".2"/><path d="M106.071 372.402l53.035 93.101H53.036z" opacity=".6"/><path d="M53.035 465.503l53.036 93.1H0z" opacity=".3"/><path d="M212.141 558.603l53.035 93.101h-106.07z" opacity=".5"/><path d="M318.212 558.603l53.035 93.101H265.176z" opacity=".1"/><path d="M424.282 558.603l53.036 93.101H371.247z" opacity=".9"/><path d="M530.353 558.603l53.035 93.101h-106.07z" opacity=".1"/><path d="M742.494 558.603l53.035 93.101h-106.07zM1060.71 558.603l53.03 93.101h-106.07z"/><path d="M1272.85 558.603l53.03 93.101h-106.07z" opacity=".2"/><path d="M1378.92 558.603l53.03 93.101h-106.07z"/><path d="M1484.99 558.603l53.03 93.101h-106.07z" opacity=".1"/><path d="M159.106 465.503l53.035 93.1h-106.07z" opacity=".6"/><path d="M265.176 465.503l53.036 93.1H212.141z" opacity=".2"/><path d="M371.247 465.503l53.035 93.1h-106.07z" opacity=".7"/><path d="M477.318 465.503l53.035 93.1H424.282zM583.388 465.503l53.036 93.1H530.353zM689.459 465.503l53.035 93.1h-106.07z" opacity=".1"/><path d="M901.6 465.503l53.035 93.1h-106.07z" opacity=".2"/><path d="M1007.67 465.503l53.04 93.1H954.635zM1113.74 465.503l53.04 93.1h-106.07z"/><path d="M1219.81 465.503l53.04 93.1h-106.07z" opacity=".1"/><path d="M1431.95 465.503l53.04 93.1h-106.07z"/><path d="M1538.02 465.503l53.04 93.1h-106.07z" opacity=".6"/><path d="M212.141 372.402l53.035 93.101h-106.07zM318.212 372.402l53.035 93.101H265.176z"/><path d="M424.282 372.402l53.036 93.101H371.247z" opacity=".1"/><path d="M530.353 372.402l53.035 93.101h-106.07z" opacity=".1"/><path d="M636.424 372.402l53.035 93.101H583.388z"/><path d="M742.494 372.402l53.035 93.101h-106.07z" opacity=".7"/><path d="M848.565 372.402l53.035 93.101H795.529z"/><path d="M954.635 372.402l53.035 93.101H901.6z" opacity=".6"/><path d="M1060.71 372.402l53.03 93.101h-106.07z" opacity=".4"/><path d="M1166.78 372.402l53.03 93.101h-106.07zM1272.85 372.402l53.03 93.101h-106.07z"/><path d="M1378.92 372.402l53.03 93.101h-106.07z" opacity=".4"/><path d="M1484.99 372.402l53.03 93.101h-106.07z"/><path d="M159.443 279.301l53.036 93.101H106.408z" opacity=".2"/><path d="M265.514 279.301l53.035 93.101h-106.07z"/><path d="M371.584 279.301l53.036 93.101H318.549z" opacity=".6"/><path d="M477.655 279.301l53.035 93.101H424.62z" opacity=".2"/><path d="M583.726 279.301l53.035 93.101H530.69zM689.796 279.301l53.036 93.101H636.761z"/><path d="M795.867 279.301l53.035 93.101h-106.07z" opacity=".4"/><path d="M901.937 279.301l53.036 93.101H848.902z" opacity=".8"/><path d="M1008.01 279.301l53.03 93.101H954.973z" opacity=".1"/><path d="M1114.08 279.301l53.03 93.101h-106.07zM1220.15 279.301l53.03 93.101h-106.07z"/><path d="M1326.22 279.301l53.04 93.101h-106.08z" opacity=".5"/><path d="M1432.29 279.301l53.04 93.101h-106.07z" opacity=".2"/><path d="M265.514 93.1l53.035 93.101h-106.07z"/><path d="M371.584 93.1l53.036 93.101H318.549z" opacity=".1"/><path d="M477.655 93.1l53.035 93.101H424.62zM583.726 93.1l53.035 93.101H530.69z"/><path d="M689.796 93.1l53.036 93.101H636.761z" opacity=".21"/><path d="M901.937 93.1l53.036 93.101H848.902z" opacity=".2"/><path d="M1008.01 93.1l53.03 93.101H954.973z" opacity=".1"/><path d="M1114.08 93.1l53.03 93.101h-106.07z" opacity=".65"/><path d="M1220.15 93.1l53.03 93.101h-106.07z" opacity=".5"/><path d="M1326.22 93.1l53.04 93.101h-106.08z" opacity=".11"/><path d="M1432.29 93.1l53.04 93.101h-106.07z" opacity=".5"/><path d="M318.549 0l53.035 93.1h-106.07zM530.69 0l53.036 93.1H477.655z" opacity=".65"/><path d="M636.761 0l53.035 93.1h-106.07zM742.832 0l53.035 93.1H689.796zM848.902 0l53.035 93.1h-106.07z"/><path d="M954.973 0l53.037 93.1H901.937z" opacity=".65"/><path d="M1061.04 0l53.04 93.1h-106.07z" opacity=".1"/><path d="M1273.18 0l53.04 93.1h-106.07z"/><path d="M1379.26 0l53.03 93.1h-106.07zM1485.33 0l53.03 93.1h-106.07z" opacity=".4"/><path d="M159.443 93.1L106.408 0h106.071z"/><path d="M53.373 93.1L.337 0h106.071z" opacity=".65"/><path d="M53.035 465.503L0 372.402h106.071zM159.106 651.704l-53.035-93.1h106.07zM265.176 651.704l-53.035-93.1h106.071zM371.247 651.704l-53.035-93.1h106.07z"/><path d="M477.318 651.704l-53.036-93.1h106.071z" opacity=".65"/><path d="M583.388 651.704l-53.035-93.1h106.071z" opacity=".1"/><path d="M689.459 651.704l-53.035-93.1h106.07z" opacity=".8"/><path d="M795.529 651.704l-53.035-93.1h106.071z" opacity=".6"/><path d="M901.6 651.704l-53.035-93.1h106.07z" opacity=".65"/><path d="M1007.67 651.704l-53.035-93.1h106.075z" opacity=".5"/><path d="M1113.74 651.704l-53.03-93.1h106.07zM1219.81 651.704l-53.03-93.1h106.07zM1325.88 651.704l-53.03-93.1h106.07z"/><path d="M1431.95 651.704l-53.03-93.1h106.07z" opacity=".6"/><path d="M1538.02 651.704l-53.03-93.1h106.07z"/><path d="M106.071 558.603l-53.036-93.1h106.071z" opacity=".25"/><path d="M212.141 558.603l-53.035-93.1h106.07z" opacity=".1"/><path d="M424.282 558.603l-53.035-93.1h106.071z" opacity=".8"/><path d="M530.353 558.603l-53.035-93.1h106.07zM636.424 558.603l-53.036-93.1h106.071z" opacity=".5"/><path d="M742.494 558.603l-53.035-93.1h106.07z"/><path d="M848.565 558.603l-53.036-93.1H901.6z" opacity=".65"/><path d="M954.635 558.603l-53.035-93.1h106.07z"/><path d="M1060.71 558.603l-53.04-93.1h106.07z" opacity=".5"/><path d="M1166.78 558.603l-53.04-93.1h106.07z" opacity=".4"/><path d="M1272.85 558.603l-53.04-93.1h106.07zM1378.92 558.603l-53.04-93.1h106.07z"/><path d="M159.106 465.503l-53.035-93.101h106.07z" opacity=".4"/><path d="M265.176 465.503l-53.035-93.101h106.071z" opacity=".1"/><path d="M371.247 465.503l-53.035-93.101h106.07zM477.318 465.503l-53.036-93.101h106.071z"/><path d="M583.388 465.503l-53.035-93.101h106.071z" opacity=".43"/><path d="M689.459 465.503l-53.035-93.101h106.07z" opacity=".4"/><path d="M795.529 465.503l-53.035-93.101h106.071z" opacity=".5"/><path d="M901.6 465.503l-53.035-93.101h106.07z" opacity=".1"/><path d="M1007.67 465.503l-53.035-93.101h106.075z" opacity=".2"/><path d="M1113.74 465.503l-53.03-93.101h106.07z" opacity=".6"/><path d="M1219.81 465.503l-53.03-93.101h106.07z" opacity=".5"/><path d="M1325.88 465.503l-53.03-93.101h106.07zM1431.95 465.503l-53.03-93.101h106.07z"/><path d="M106.408 372.402l-53.035-93.101h106.07z" opacity=".1"/><path d="M212.479 372.402l-53.036-93.101h106.071zM530.69 372.402l-53.035-93.101h106.071z"/><path d="M636.761 372.402l-53.035-93.101h106.07z" opacity=".1"/><path d="M742.832 372.402l-53.036-93.101h106.071z"/><path d="M848.902 372.402l-53.035-93.101h106.07z" opacity=".2"/><path d="M954.973 372.402l-53.036-93.101h106.073z" opacity=".1"/><path d="M1061.04 372.402l-53.03-93.101h106.07z"/><path d="M1167.11 372.402l-53.03-93.101h106.07z" opacity=".2"/><path d="M1273.18 372.402l-53.03-93.101h106.07zM1379.26 372.402l-53.04-93.101h106.07z"/><path d="M159.443 279.301l-53.035-93.1h106.071z" opacity=".4"/><path d="M265.514 279.301l-53.035-93.1h106.07z" opacity=".1"/><path d="M371.584 279.301l-53.035-93.1H424.62z" opacity=".4"/><path d="M477.655 279.301l-53.035-93.1h106.07z"/><path d="M583.726 279.301l-53.036-93.1h106.071z" opacity=".4"/><path d="M689.796 279.301l-53.035-93.1h106.071z" opacity=".1"/><path d="M795.867 279.301l-53.035-93.1h106.07z"/><path d="M901.937 279.301l-53.035-93.1h106.071z" opacity=".9"/><path d="M1008.01 279.301l-53.037-93.1h106.067zM1114.08 279.301l-53.04-93.1h106.07zM1220.15 279.301l-53.04-93.1h106.07zM1326.22 279.301l-53.04-93.1h106.08z"/><path d="M1432.29 279.301l-53.03-93.1h106.07z" opacity=".4"/><path d="M1538.36 279.301l-53.03-93.1h106.07z"/><path d="M212.479 186.201L159.443 93.1h106.071z" opacity=".21"/><path d="M318.549 186.201L265.514 93.1h106.07z"/><path d="M424.62 186.201L371.584 93.1h106.071z" opacity=".8"/><path d="M530.69 186.201L477.655 93.1h106.071z" opacity=".4"/><path d="M636.761 186.201L583.726 93.1h106.07zM742.832 186.201L689.796 93.1h106.071z"/><path d="M848.902 186.201L795.867 93.1h106.07z"/><path d="M954.973 186.201L901.937 93.1h106.073z" opacity=".8"/><path d="M1061.04 186.201L1008.01 93.1h106.07zM1167.11 186.201L1114.08 93.1h106.07zM1273.18 186.201L1220.15 93.1h106.07zM1379.26 186.201L1326.22 93.1h106.07zM1485.33 186.201L1432.29 93.1h106.07zM1538.36 93.1L1485.33 0h106.07zM265.514 93.1L212.479 0h106.07zM583.726 93.1L530.69 0h106.071z"/><path d="M689.796 93.1L636.761 0h106.071z" opacity=".8"/><path d="M901.937 93.1L848.902 0h106.071z"/><path d="M1008.01 93.1L954.973 0h106.067zM1326.22 93.1L1273.18 0h106.08zM1432.29 93.1L1379.26 0h106.07z"/></g></svg>